<svg fill="none" xmlns="http://www.w3.org/2000/svg" viewBox="0 0 127.8 23.4">
<g id="logo-footer"
clip-path="url(#clip0)" fill="#111">
<path d="M1.6025 22.0513C.4684 20.3682-.0947 18.3503 0 16.3077V7.7949c-.1373-2.0646.3904-4.1183 1.5024-5.8462C2.604.6154 4.3068 0 6.8107 0c2.5039 0 4.1064.6154 5.108 1.7436 1.0873 1.429 1.6222 3.2182 1.5023 5.0256v2.0513H8.5133v-2.359a5.157 5.157 0 00-.3004-2.0512 1.4631 1.4631 0 00-.5785-.6301 1.4147 1.4147 0 00-.8237-.1905c-.7011 0-1.202.2052-1.4022.718A6.7743 6.7743 0 005.108 6.564v10.9744a4.3344 4.3344 0 00.4006 2.1538c.2003.5128.7011.718 1.4022.718s1.1017-.2052 1.302-.718a6.1224 6.1224 0 00.3005-2.1538v-2.4616h4.9077v2.0513c.1019 1.8369-.4299 3.6521-1.5023 5.1282-1.0016 1.2308-2.7043 1.8462-5.108 1.8462-2.4038-.1026-4.2066-.718-5.2082-2.0513zM19.3302.3076h5.7089l4.2066 23.3846h-4.6072l-.8013-4.923h-3.3051l-.8013 4.923h-4.7073L19.3302.3076zm4.1064 15.3846L22.2347 6.564l-1.2018 9.1282h2.4037zM32.7512 4.205h-3.4053V.3076h11.9186v3.7949h-3.4053v19.5897h-5.108V4.2051zM50.3787.3076h8.8138v2.4616h-5.7089v7.6923h4.6072v2.3589h-4.6072v8.6154h5.7089v2.359h-8.9139V.3076h.1001zM61.7966.3076H64l6.5102 15.4872V.3076h2.604v23.3846h-2.0031l-6.6103-16v16h-2.7042V.3076zM76.1189.3076h8.8138v2.4616h-5.7089v7.6923h4.6072v2.3589h-4.6072v8.6154h5.7089v2.359h-8.8138V.3076zM87.5368.3076h4.6072c1.8124-.1282 3.6135.3781 5.1079 1.4359 1.1018.923 1.6025 2.5641 1.6025 4.718 0 2.9743-.9014 4.8205-2.8043 5.4358l3.205 11.6924h-3.1049l-3.0047-10.9744h-2.5039v10.9744h-3.205V.3076h.1002zm4.4069 10.0513c1.0325.0871 2.0616-.2036 2.9045-.8205.6009-.5128.9014-1.5385.9014-3.077a6.7725 6.7725 0 00-.3005-2.2564c-.2254-.5229-.6125-.9554-1.1017-1.2307a4.4731 4.4731 0 00-2.2034-.4103h-1.4022v7.6923h1.2019v.1026zM102.861 21.9487c-1.041-1.7933-1.53-3.8666-1.402-5.9488V8.2051a17.1425 17.1425 0 01.5-4.4103c.335-1.0767 1.003-2.0126 1.903-2.6667 1.119-.6778 2.409-.9992 3.706-.923 2.103 0 3.606.5128 4.507 1.641 1.037 1.4897 1.533 3.3037 1.402 5.1282v.8205h-3.004v-.718a15.503 15.503 0 00-.201-2.564c-.084-.5355-.372-1.0149-.801-1.3334-.563-.3784-1.231-.5584-1.903-.5128-.718-.0471-1.429.1713-2.003.6154a2.3078 2.3078 0 00-.566.7359 2.3489 2.3489 0 00-.235.9051c-.132.917-.199 1.8424-.201 2.7692v8.718c-.073 1.3282.131 2.6572.601 3.8974.401.8205 1.202 1.1282 2.404 1.1282.475.0606.956-.0239 1.384-.2429.428-.219.782-.5627 1.02-.9878a9.6347 9.6347 0 00.701-4.1026v-1.641h-2.905v-2.359h5.809v11.5898h-2.003l-.3-2.6667c-.263.8937-.809 1.6719-1.554 2.2108-.744.5389-1.642.8077-2.553.7635a4.9067 4.9067 0 01-2.406-.4695c-.751-.358-1.404-.9015-1.9-1.5817zM119.987 15.4871L115.08.4101h3.004l3.506 11.2821 3.405-11.282H128l-4.908 15.0769v8.2051h-3.004v-8.2051h-.101z"/></g>
<defs>
<clipPath id="clip0">
<path fill="#fff" d="M0 0h128v24H0z"/></clipPath></defs>
</svg>
