<svg width="204" height="60" viewBox="0 0 204 60" fill="none" xmlns="http://www.w3.org/2000/svg">
<g clip-path="url(#clip0)">
<path d="M60.2491 24.5799C58.5146 20.4945 55.7212 16.9274 52.1473 14.2339C48.5734 11.5404 44.3438 9.81467 39.88 9.22867C35.4163 8.64267 30.8742 9.21687 26.7065 10.894C22.5388 12.5712 18.8911 15.2928 16.1268 18.7875C13.3624 22.2823 11.5781 26.4281 10.9515 30.812C10.325 35.1958 10.8781 39.6645 12.5559 43.7727C14.2336 47.8809 16.9772 51.4852 20.5135 54.2263C24.0497 56.9675 28.2549 58.7497 32.7102 59.3955C32.1266 57.3283 31.5329 55.0435 31.0097 52.6203C32.5318 53.5909 34.1339 54.4345 35.7991 55.1424C35.7991 55.1424 35.9199 57.2788 36.0808 59.6625C37.8801 59.693 39.6777 59.5372 41.4437 59.1977C41.3981 58.9491 41.3981 58.6945 41.4437 58.446C41.7355 56.5964 42.5405 53.2632 42.7015 51.1169C43.8619 50.0499 44.8463 48.8119 45.6194 47.4474L45.559 47.8826C45.0056 52.0961 43.8485 56.5964 43.1442 57.8426C42.9161 58.2551 42.6355 58.6374 42.309 58.9801C45.9512 58.1402 49.3639 56.5317 52.3107 54.2661C55.2574 52.0005 57.6677 49.132 59.3743 45.8595C61.081 42.587 62.0432 38.9888 62.1942 35.3143C62.3453 31.6399 61.6816 27.9771 60.2491 24.5799ZM58.77 28.3285C58.3273 28.7538 57.4117 29.0406 57.2608 27.7548C57.1099 26.469 57.0696 25.5689 57.0696 25.5689C57.0696 25.5689 55.1277 22.1764 54.4033 22.1368C53.6788 22.0973 48.5373 25.5689 47.1789 27.0822C46.0017 28.3582 45.7703 28.2691 45.7703 30.5143C45.7703 32.2057 45.9916 38.5951 45.8709 43.4812L37.6706 45.6275C35.0931 46.3546 32.472 46.9228 29.8224 47.3287L28.8163 41.5624H28.6754L26.0895 28.5362C26.0895 28.5362 22.256 27.1119 20.8474 26.7262C20.186 26.4417 19.4556 26.3492 18.7424 26.4597C18.0293 26.5701 17.3631 26.8788 16.8227 27.3493C16.2713 27.8239 15.8304 28.4096 15.5301 29.0667C15.2297 29.7238 15.0769 30.4369 15.082 31.1572C15.2947 31.6169 15.4566 32.0978 15.565 32.5914C15.6153 33.0662 14.3576 33.0167 13.5526 33.0167C12.7477 33.0167 12.6269 31.5924 13.2608 29.9209C13.7554 28.6356 14.3683 27.3974 15.0921 26.2217C15.6364 25.1716 16.3386 24.2079 17.1748 23.3633C17.1748 23.3633 17.3157 23.027 18.4326 23.1259C19.5494 23.2248 25.7575 23.5512 25.7575 23.5512L25.8078 21.306C32.5556 20.3901 39.3611 19.9472 46.1728 19.9806C46.1728 20.584 46.1728 21.1873 46.1728 21.7907C48.7528 20.6332 51.531 19.9622 54.363 19.8125C54.5145 19.8087 54.6646 19.842 54.7999 19.9093C54.9351 19.9767 55.0512 20.0759 55.1378 20.1982C55.4799 20.6235 57.5626 23.1655 57.8041 23.5314C58.4805 24.4816 59.0955 25.4727 59.6454 26.4987C59.4569 27.1483 59.1612 27.7631 58.77 28.3186V28.3285Z" fill="#FDC305"/>
<path d="M56.8086 22.2753C57.2815 22.8688 57.694 23.393 57.8148 23.5512C58.4911 24.5014 59.1061 25.4925 59.6561 26.5185C59.4646 27.1468 59.1725 27.7411 58.7907 28.279C58.348 28.7043 57.4324 28.9912 57.2815 27.7054C57.1306 26.4196 57.0702 25.5689 57.0702 25.5689C57.0702 25.5689 55.1283 22.1764 54.4038 22.1368C53.6794 22.0973 48.5378 25.5689 47.1795 27.0822C46.0023 28.3582 45.7709 28.2691 45.7709 30.5143C45.7709 31.998 45.9419 37.0917 45.9017 41.6217C47.7228 41.8195 50.3993 42.3141 51.2042 43.4812C51.2042 43.4812 50.9124 36.3796 59.0624 40.0985C59.0624 40.0985 59.3441 30.4154 70.5932 32.898C66.7691 28.4846 62.0814 24.8721 56.8086 22.2753Z" fill="#F06351"/>
<path d="M46.2136 19.9806C46.2545 14.4999 45.783 9.02706 44.8049 3.63116C44.8049 3.63116 44.654 2.34535 43.9295 3.39378C43.3318 4.64716 42.9249 5.98022 42.7221 7.3501C38.4209 7.07881 34.1035 7.19136 29.823 7.68638C28.9979 4.96641 27.5893 3.73006 26.9152 4.05646C26.241 4.38286 26.1605 7.30064 26.1605 7.30064L25.8285 21.306C32.5829 20.3892 39.3952 19.9463 46.2136 19.9806Z" fill="#F06351"/>
<path d="M45.6292 47.4474C45.76 46.3891 45.8304 44.9846 45.8707 43.4317L37.6708 45.578C35.0945 46.3219 32.4735 46.9066 29.823 47.3287L30.9398 52.2741C30.9398 52.3829 30.9398 52.4917 31.0102 52.6005C32.5322 53.5711 34.1342 54.4147 35.7994 55.1226C38.2329 53.9791 40.5506 52.6113 42.7215 51.0377V51.0971C43.8766 50.0354 44.8575 48.8042 45.6292 47.4474Z" fill="#E55645"/>
<path d="M32.1975 16.8848C32.1472 16.7859 33.2037 17.5574 33.6162 17.7948C34.0287 18.0322 34.2299 18.2102 34.2299 18.3783C34.2299 18.5465 33.9683 18.7146 33.6061 18.7146C33.2439 18.7146 32.6805 18.5959 32.6 18.4575C32.5195 18.319 33.2037 18.4575 33.5457 18.4575H33.8375C33.2181 18.012 32.6659 17.4825 32.1975 16.8848Z" fill="black"/>
<path d="M39.7438 16.9936C39.7438 16.9936 38.7377 18.2596 38.6472 18.319C38.5566 18.3783 38.4761 18.6553 38.8383 18.6058C39.2541 18.5448 39.6645 18.4522 40.0658 18.3289C40.1765 18.2695 40.1362 18.1311 39.9451 18.1509C39.7539 18.1706 39.2609 18.2003 38.9389 18.2597L39.7941 17.0035C39.7941 17.0035 39.8243 16.8848 39.7438 16.9936Z" fill="black"/>
<path d="M36.5844 23.0369C37.0508 22.8349 37.4363 22.4872 37.6811 22.0478C37.9628 21.395 37.6811 21.1478 37.2384 21.0587C36.6293 20.9495 36.0008 21.0696 35.4777 21.395C35.0853 21.761 35.1356 22.1171 35.4777 22.3841C35.8175 22.6461 36.1893 22.8654 36.5844 23.0369Z" fill="black"/>
<path d="M36.222 24.2831C36.1065 24.5075 35.9496 24.7087 35.7592 24.8766C35.4727 25.1032 35.1205 25.2348 34.7531 25.2524C34.1992 25.3059 33.6453 25.1503 33.2037 24.8172C33.0009 24.7006 32.8204 24.55 32.6704 24.3722C32.5698 24.2644 32.4461 24.18 32.3082 24.1249C32.3082 24.1249 33.0628 28.19 34.894 28.8428C36.7251 29.4956 37.0672 28.0911 37.1175 27.7152C37.1788 26.5896 36.8911 25.4721 36.2925 24.5106C36.2925 24.2139 36.2724 24.4117 36.222 24.2831Z" fill="#F06351"/>
<path d="M34.5116 25.4107C34.0407 25.3442 33.5885 25.1845 33.1821 24.9414C32.7757 24.6983 32.4237 24.3768 32.1472 23.9963C32.1224 23.9691 32.1088 23.9339 32.1088 23.8974C32.1088 23.8609 32.1224 23.8257 32.1472 23.7985C32.1603 23.7853 32.176 23.7749 32.1932 23.7677C32.2105 23.7606 32.2291 23.7569 32.2478 23.7569C32.2665 23.7569 32.2851 23.7606 32.3024 23.7677C32.3197 23.7749 32.3353 23.7853 32.3484 23.7985C32.5974 24.1419 32.9133 24.4332 33.2777 24.6556C33.6421 24.8781 34.0478 25.0271 34.4713 25.0942C34.8064 25.0694 35.1306 24.9669 35.4175 24.7949C35.7043 24.623 35.9456 24.3866 36.1214 24.1051L36.2622 23.9172L36.3629 24.1348C36.3629 24.1348 36.7452 24.8865 37.369 24.926C37.9928 24.9656 38.4355 24.5106 39.009 23.6501C39.0303 23.6187 39.0635 23.5968 39.1012 23.5894C39.139 23.582 39.1782 23.5896 39.2102 23.6106C39.2422 23.6316 39.2644 23.6642 39.272 23.7013C39.2795 23.7384 39.2718 23.7769 39.2504 23.8084C38.5797 24.7777 37.9458 25.2425 37.3489 25.203C37.1181 25.1729 36.8972 25.0925 36.7022 24.9675C36.5072 24.8426 36.3431 24.6763 36.222 24.481C36.0251 24.7512 35.7695 24.9749 35.4736 25.1357C35.1777 25.2965 34.8491 25.3905 34.5116 25.4107Z" fill="black"/>
<path d="M36.4837 38.7237C38.5674 38.7237 40.2566 37.0631 40.2566 35.0147C40.2566 32.9662 38.5674 31.3056 36.4837 31.3056C34.3999 31.3056 32.7107 32.9662 32.7107 35.0147C32.7107 37.0631 34.3999 38.7237 36.4837 38.7237Z" fill="#FDC305"/>
<path d="M41.4841 31.998L38.3349 33.2937L39.492 27.7251L31.946 37.3786L35.0952 36.0829L33.9382 41.6613L41.4841 31.998ZM34.0488 35.7861L38.2343 30.4352L37.4194 34.3915L39.4316 33.5805L35.2159 38.9413L36.0309 34.985L34.0488 35.7861Z" fill="#111111"/>
<path d="M32.6402 34.3322C33.2625 34.3322 33.767 33.8362 33.767 33.2244C33.767 32.6126 33.2625 32.1167 32.6402 32.1167C32.0178 32.1167 31.5133 32.6126 31.5133 33.2244C31.5133 33.8362 32.0178 34.3322 32.6402 34.3322Z" fill="#111111"/>
<path d="M39.2005 38.3479C39.6395 38.3479 39.9953 37.998 39.9953 37.5665C39.9953 37.1349 39.6395 36.7851 39.2005 36.7851C38.7615 36.7851 38.4056 37.1349 38.4056 37.5665C38.4056 37.998 38.7615 38.3479 39.2005 38.3479Z" fill="#111111"/>
<path d="M40.1665 36.2016C40.361 36.2016 40.5187 36.0466 40.5187 35.8554C40.5187 35.6642 40.361 35.5092 40.1665 35.5092C39.972 35.5092 39.8143 35.6642 39.8143 35.8554C39.8143 36.0466 39.972 36.2016 40.1665 36.2016Z" fill="#111111"/>
<path d="M46.1632 21.7709C44.347 23.3804 42.6364 25.1015 41.0418 26.924C39.4535 28.7333 37.661 30.3592 35.699 31.7705C35.4777 31.2463 34.059 30.2671 34.059 30.2671C34.059 30.2671 30.8996 28.1406 28.8269 26.469C27.7064 25.5516 26.6508 24.5602 25.6675 23.5018L23.6552 23.393C26.56 27.5641 30.8156 30.6458 35.7292 32.1364C36.5945 31.998 39.0295 30.2869 40.8506 28.8923C43.0053 27.091 45.023 25.1373 46.8877 23.0468C47.3889 22.4612 47.7776 21.7909 48.0347 21.0686C46.8877 21.4445 46.1632 21.7709 46.1632 21.7709Z" fill="#F06351"/>
<path d="M65.6221 4.30373L57.1103 13.6406L55.8828 11.6724L64.0827 0.841953L65.6221 4.30373Z" fill="#FDC305"/>
<path d="M63.0367 17.9135L68.6107 13.8484L67.8259 10.1492L62.3928 14.9067L63.0367 17.9135Z" fill="#FDC305"/>
<path d="M60.2899 49.6728L66.4575 52.8181L69.4859 50.5036L62.7549 47.7837L60.2899 49.6728Z" fill="#FDC305"/>
<path d="M1.96191 6.74676L5.05071 3.42345L14.3976 12.3252L13.1701 14.5803L1.96191 6.74676Z" fill="#FDC305"/>
<path d="M7.42607 16.9442L2.69729 13.8484L0.282593 17.6761L5.46413 20.0499L7.42607 16.9442Z" fill="#FDC305"/>
<path d="M13.9952 52.8181L9.41736 56.1315L12.2345 59.6724L16.2791 55.6963L13.9952 52.8181Z" fill="#FDC305"/>
<path d="M26.0901 28.5362C26.0901 28.5362 22.2566 27.1119 20.8479 26.7262C20.1865 26.4417 19.4561 26.3492 18.7429 26.4597C18.0298 26.5701 17.3637 26.8788 16.8232 27.3493C16.2719 27.8239 15.831 28.4096 15.5306 29.0667C15.2302 29.7239 15.0774 30.4369 15.0825 31.1572C15.2952 31.617 15.4571 32.0978 15.5655 32.5914C15.6158 33.0662 14.3581 33.0167 13.5532 33.0167C12.7482 33.0167 12.6275 31.5924 13.2614 29.9209C13.7559 28.6356 14.3689 27.3974 15.0926 26.2217C9.60896 29.0307 0 35.5191 0 35.5191C2.74855 35.3562 5.50643 35.4356 8.24056 35.7565C13.523 36.2807 13.2714 40.3755 13.2714 40.3755C15.1294 39.872 17.0229 39.505 18.9362 39.2776C21.0693 39.1391 21.2202 41.3744 21.2202 41.3744L21.7535 45.1923C22.5632 44.3311 23.4562 43.5493 24.4198 42.8581C25.6619 41.8807 27.2435 41.4192 28.8269 41.5723L26.0901 28.5362Z" fill="#F06351"/>
<path d="M86.1888 42.3833C85.1523 40.8735 84.6567 39.0674 84.7802 37.25V29.8319C84.6495 28.0011 85.1376 26.1791 86.1687 24.6491C87.101 23.4688 88.694 22.8819 90.9477 22.8885C93.2015 22.8951 94.7274 23.4128 95.5256 24.4414C96.4989 25.7161 96.9738 27.2922 96.8637 28.8824V30.6231H92.6984V28.734C92.6928 28.2369 92.6491 27.741 92.5676 27.2504C92.5172 26.8952 92.3514 26.5656 92.0947 26.3108C91.9363 26.1772 91.7524 26.076 91.5537 26.0132C91.355 25.9504 91.1456 25.9271 90.9377 25.9448C90.6391 25.901 90.334 25.9487 90.0639 26.0814C89.7939 26.2142 89.572 26.4255 89.4285 26.6866C89.1639 27.3812 89.0475 28.1219 89.0864 28.8626V38.2786C89.0405 39.0242 89.175 39.7699 89.4788 40.4546C89.624 40.7016 89.8394 40.9015 90.0986 41.0298C90.3577 41.1581 90.6494 41.2091 90.9377 41.1766C91.221 41.216 91.5097 41.1664 91.7626 41.035C92.0155 40.9036 92.2198 40.697 92.3463 40.4447C92.5896 39.7488 92.6955 39.0136 92.6581 38.2786V36.3005H96.8235V38.0116C96.9461 39.6252 96.51 41.2321 95.586 42.5712C94.7006 43.6592 93.1713 44.1933 90.9981 44.1933C88.8248 44.1933 87.1245 43.5999 86.1888 42.3833Z" fill="#111111"/>
<path d="M102.539 23.1754H107.308L111.332 43.946H107.368L106.654 39.3567H103.314L102.509 43.9164H98.4843L102.539 23.1754ZM106.211 36.7455L104.944 28.3977L103.686 36.7455H106.211Z" fill="#111111"/>
<path d="M114.422 26.3009H111.162V23.1754H121.948V26.3009H118.728V43.9164H114.412L114.422 26.3009Z" fill="#111111"/>
<path d="M130.41 23.1754H138.59V25.3316H133.358V32.1859H137.604V34.2333H133.358V41.8393H138.64V43.9164H130.41V23.1754Z" fill="#444444"/>
<path d="M141.015 23.1754H143.027L149.064 36.9532V23.1754H151.519V43.946H149.638L143.601 29.7824V43.9164H141.106L141.015 23.1754Z" fill="#444444"/>
<path d="M154.77 23.1754H162.939V25.3316H157.708V32.1859H161.994V34.2333H157.748V41.8393H163V43.9164H154.77V23.1754Z" fill="#444444"/>
<path d="M165.365 23.1754H169.61C171.284 23.043 172.95 23.5025 174.309 24.4711C175.315 25.3316 175.808 26.7361 175.808 28.6845C175.808 31.3221 174.94 32.9343 173.202 33.5211L176.221 43.9164H173.363L170.596 34.1838H168.313V43.9164H165.365V23.1754ZM169.389 32.0771C170.358 32.1693 171.328 31.9011 172.106 31.3254C172.422 30.9575 172.658 30.53 172.8 30.069C172.942 29.6081 172.986 29.1235 172.931 28.645C172.951 27.9739 172.852 27.3046 172.639 26.6668C172.552 26.4317 172.419 26.216 172.246 26.0325C172.073 25.849 171.865 25.7015 171.633 25.5986C170.98 25.3352 170.275 25.217 169.57 25.2524H168.272V32.1167L169.389 32.0771Z" fill="#444444"/>
<path d="M179.773 42.3833C178.811 40.7875 178.366 38.9421 178.495 37.0917V30.1682C178.46 28.8321 178.63 27.4984 178.998 26.2118C179.289 25.2446 179.906 24.4037 180.749 23.8282C181.766 23.2256 182.943 22.9362 184.129 22.9973C184.897 22.9256 185.67 23.0195 186.397 23.2723C187.123 23.5251 187.785 23.9309 188.335 24.4612C189.3 25.7905 189.757 27.4126 189.623 29.0406V29.8121H186.856V29.1692C186.875 28.4002 186.814 27.6314 186.675 26.8745C186.583 26.3895 186.311 25.9556 185.91 25.658C185.388 25.3549 184.785 25.2136 184.18 25.2524C183.523 25.1972 182.869 25.3959 182.359 25.8063C181.941 26.1955 181.669 26.7109 181.584 27.2702C181.456 28.0849 181.399 28.9088 181.413 29.733V37.4379C181.333 38.6087 181.536 39.7815 182.006 40.8601C182.28 41.1918 182.626 41.4578 183.02 41.6377C183.413 41.8176 183.843 41.9066 184.277 41.898C184.711 41.8894 185.138 41.7834 185.523 41.5881C185.909 41.3928 186.245 41.1133 186.504 40.7711C186.989 39.6303 187.199 38.3948 187.118 37.161V35.6971H184.441V33.6497H189.774V43.9164H187.953L187.661 41.5327C187.43 42.3246 186.934 43.0166 186.253 43.496C185.571 43.9755 184.745 44.2143 183.908 44.1735C183.121 44.2417 182.33 44.1134 181.607 43.8004C180.884 43.4874 180.253 43 179.773 42.3833Z" fill="#444444"/>
<path d="M195.892 36.5972L191.334 23.1754H194.071L197.3 33.1849L200.479 23.1754H203.246L198.719 36.5972V43.9164H195.902L195.892 36.5972Z" fill="#444444"/>
</g>
<defs>
<clipPath id="clip0">
<rect width="203.237" height="58.8305" fill="white" transform="translate(0 0.841953)"/>
</clipPath>
</defs>
</svg>
